:SAMPLES-PER-SECOND 30
:FULLY-SPECIFIED
:DEGREES
218
root  1.97532 38.5659 3.39708 -23.698 -64.7618 11.0576
RightUpLeg  -16.5252 -4.67872 -9.92042
RightLeg  40.0963 2.94058 2.37618
RightFoot  -8.86703 -0.15274 4.30946
RightToes  5.82063e-011 0 -3.6325e-017
Spine  14.6153 1.1054 -1.26366
Spine1  9.83043 1.40112 -2.59182
HEad  -23.5885 15.0692 -11.4485
LeftShoulder1  1.0941 -0.331711 -22.1803
LeftArm  -6.64586 -28.1055 -43.5248
LeftForeArm  -4.90602 -54.7579 -16.4693
LeftHand  -0.0199004 4.78033 -1.26965
RightShoulder  0.455276 -1.55569 16.944
RightArm  -3.12518 41.3611 30.8447
RightForeArm  -32.8657 43.5186 12.4377
RightHand  -0.251606 7.0322 -2.70418
LeftUpLeg  1.30546 5.86815 -2.06844
LeftLeg  23.1564 -5.81673 -2.37746
LeftFoot  -12.354 0.0545435 -2.2053
LeftToes  1.68253e-010 -3.2327e-011 -2.69673e-012
219
root  2.49934 38.5595 2.86712 -22.0148 -59.8571 9.04663
RightUpLeg  -15.875 -1.79498 -10.4833
RightLeg  46.1366 4.89102 5.13022
RightFoot  -10.7899 -0.104169 6.15339
RightToes  5.82063e-011 0 -3.6325e-017
Spine  15.1016 1.38824 -1.50419
Spine1  9.71136 1.5955 -2.72158
HEad  -23.9892 16.9137 -12.3269
LeftShoulder1  1.08543 -0.282008 -22.3326
LeftArm  -6.56414 -28.0129 -42.9235
LeftForeArm  -5.05051 -54.9995 -16.6371
LeftHand  -0.019211 4.64056 -1.13315
RightShoulder  0.499197 -1.33914 16.5657
RightArm  -2.60618 41.0891 31.1575
RightForeArm  -33.6048 43.5132 12.4656
RightHand  -0.2799 7.63993 -2.85733
LeftUpLeg  0.360321 3.98127 -2.22361
LeftLeg  22.5708 -8.82238 -3.65433
LeftFoot  -11.8176 0.0531841 -4.10478
LeftToes  1.68253e-010 -3.2327e-011 -2.69673e-012
220
root  2.9439 38.511 2.30839 -20.7797 -55.1971 7.67078
RightUpLeg  -14.8256 0.298127 -10.4769
RightLeg  51.5706 6.83753 8.8112
RightFoot  -12.3169 -0.0112212 8.2153
RightToes  5.82063e-011 0 -3.6325e-017
Spine  15.0701 1.76322 -1.64478
Spine1  10.1165 1.98031 -3.0858
HEad  -24.2602 18.9426 -12.6515
LeftShoulder1  1.08082 -0.295773 -22.0942
LeftArm  -6.86074 -28.0735 -42.601
LeftForeArm  -5.24537 -54.9419 -16.6152
LeftHand  -0.00998961 3.92255 -0.899638
RightShoulder  0.496055 -1.36041 16.6616
RightArm  -2.25398 41.3736 31.2611
RightForeArm  -33.3856 43.3731 12.4004
RightHand  -0.267701 7.37532 -2.78848
LeftUpLeg  -0.799462 2.38944 -2.35992
LeftLeg  22.198 -11.6622 -4.76406
LeftFoot  -11.6267 0.0533627 -6.60197
LeftToes  1.68253e-010 -3.2327e-011 -2.69673e-012
221
root  3.34838 38.4245 1.73604 -19.9312 -50.5405 6.90515
RightUpLeg  -13.1987 1.80787 -10.224
RightLeg  55.7961 8.92666 13.4597
RightFoot  -13.3264 0.106784 11.4953
RightToes  5.82063e-011 0 -3.6325e-017
Spine  15.1839 2.20239 -1.90327
Spine1  10.1016 2.40806 -3.37482
HEad  -23.9982 20.4114 -12.4244
LeftShoulder1  1.07634 -0.274531 -22.138
LeftArm  -6.90074 -28.1527 -42.2775
LeftForeArm  -5.75942 -55.0139 -16.703
LeftHand  -0.0127551 4.15096 -0.36949
RightShoulder  0.518029 -1.26255 16.6176
RightArm  -2.46621 41.0788 31.5393
RightForeArm  -32.3307 43.6048 12.4506
RightHand  -0.183631 7.25709 -2.04779
LeftUpLeg  -2.2233 0.906986 -2.81129
LeftLeg  22.0528 -14.4191 -5.809
LeftFoot  -11.3365 0.0679474 -8.59701
LeftToes  1.68253e-010 -3.2327e-011 -2.69673e-012
222
root  3.72774 38.2973 1.1604 -19 -45.3713 6.20221
RightUpLeg  -10.7122 2.16001 -9.70183
RightLeg  58.2268 11.6431 19.017
RightFoot  -13.0416 0.136527 15.1665
RightToes  5.82063e-011 0 -3.6325e-017
Spine  15.2669 2.39885 -2.28023
Spine1  10.1055 2.50282 -3.32419
HEad  -24.2348 21.655 -12.7102
LeftShoulder1  1.08706 -0.321842 -22.0616
LeftArm  -7.2826 -28.0581 -42.1811
LeftForeArm  -5.53819 -55.0213 -16.6904
LeftHand  -0.014901 4.30702 -1.0352
RightShoulder  0.510554 -1.27756 16.4207
RightArm  -2.34487 41.4382 31.7961
RightForeArm  -32.2254 43.3329 12.3369
RightHand  -0.127837 7.50712 -1.51375
LeftUpLeg  -4.01529 -1.14364 -3.47791
LeftLeg  22.2992 -17.0871 -6.96274
LeftFoot  -11.2401 0.0766377 -10.8042
LeftToes  1.68253e-010 -3.2327e-011 -2.69673e-012
223
root  4.06943 38.125 0.559449 -18.0142 -40.5913 5.65802
RightUpLeg  -7.71433 2.91169 -8.38959
RightLeg  58.1565 14.5624 23.2715
RightFoot  -11.7182 -0.0228844 20.0365
RightToes  5.82063e-011 0 -3.6325e-017
Spine  15.0525 2.6389 -2.24478
Spine1  10.386 2.84716 -3.73859
HEad  -24.6943 22.8839 -13.1755
LeftShoulder1  1.09672 -0.358329 -22.0428
LeftArm  -7.74471 -28.5241 -42.0579
LeftForeArm  -5.25667 -54.8402 -16.55
LeftHand  -0.0191483 4.65667 -1.49689
RightShoulder  0.505272 -1.30323 16.4541
RightArm  -2.49469 42.0327 31.8414
RightForeArm  -32.1482 43.1895 12.2767
RightHand  -0.107608 7.05106 -1.36323
LeftUpLeg  -6.07171 -3.02066 -4.01984
LeftLeg  22.6744 -19.4207 -8.06275
LeftFoot  -11.2213 0.0792987 -12.8578
LeftToes  1.68253e-010 -3.2327e-011 -2.69673e-012
